<?xml version="1.0" standalone="no"?>
<!DOCTYPE svg PUBLIC "-//W3C//DTD SVG 20010904//EN"
 "http://www.w3.org/TR/2001/REC-SVG-20010904/DTD/svg10.dtd">
<svg version="1.0" xmlns="http://www.w3.org/2000/svg"
 width="590.000000pt" height="552.000000pt" viewBox="0 0 590.000000 552.000000"
 preserveAspectRatio="xMidYMid meet">

<g transform="translate(0.000000,552.000000) scale(0.100000,-0.100000)"
fill="#000000" stroke="none">
<path d="M4875 5106 c-12 -9 -42 -15 -77 -16 -36 0 -58 -5 -61 -12 -8 -22 19
-62 72 -107 35 -29 49 -47 43 -54 -12 -16 -13 -105 0 -113 5 -3 -17 -34 -50
-67 -108 -114 -147 -206 -161 -389 -8 -90 -15 -128 -31 -154 -44 -75 -21 -109
67 -99 41 5 69 3 93 -7 139 -58 285 -61 433 -8 78 27 92 30 123 20 29 -10 39
-9 59 4 32 21 32 46 0 92 -22 32 -25 48 -25 118 0 125 -16 202 -60 291 -21 44
-61 105 -89 136 -28 31 -47 59 -44 63 11 11 11 100 1 113 -7 9 3 27 35 63 48
53 65 96 47 114 -7 7 -65 11 -158 11 -81 1 -158 4 -172 8 -17 5 -32 3 -45 -7z
m-4 -219 c-16 -16 -26 0 -10 19 9 11 15 12 17 4 2 -6 -1 -17 -7 -23z m39 4
c-11 -21 -30 -29 -30 -12 0 12 31 43 37 37 3 -2 0 -14 -7 -25z m103 20 c21 12
22 -1 2 -27 -12 -15 -16 -16 -24 -5 -5 7 -11 9 -14 4 -4 -6 -20 -10 -37 -11
-26 -1 -29 2 -20 18 12 23 29 29 56 20 11 -5 28 -4 37 1z m33 -29 c-22 -23
-29 -10 -9 18 11 16 18 19 21 11 2 -7 -3 -20 -12 -29z m44 9 c-11 -21 -30 -29
-30 -12 0 12 31 43 37 37 3 -2 0 -14 -7 -25z m36 -6 c-3 -8 -12 -15 -21 -15
-14 0 -13 3 2 26 17 26 30 18 19 -11z m39 4 c0 -7 -8 -15 -17 -17 -12 -2 -15
2 -11 18 6 23 28 22 28 -1z m-288 -54 c-4 -8 -11 -15 -17 -15 -14 0 -13 27 3
33 16 6 21 1 14 -18z m43 17 c0 -15 -28 -47 -35 -40 -8 8 13 48 25 48 6 0 10
-4 10 -8z m28 -17 c-6 -14 -18 -25 -25 -25 -14 0 -11 11 10 38 17 21 27 13 15
-13z m42 17 c0 -15 -28 -47 -35 -40 -8 8 13 48 25 48 6 0 10 -4 10 -8z m40 2
c0 -13 -21 -44 -30 -44 -14 0 -12 24 2 38 13 13 28 16 28 6z m16 -32 c-22 -23
-29 -10 -9 18 11 16 18 19 21 11 2 -7 -3 -20 -12 -29z m54 30 c0 -15 -28 -47
-35 -40 -8 8 13 48 25 48 6 0 10 -4 10 -8z m16 -30 c-22 -23 -29 -10 -9 18 11
16 18 19 21 11 2 -7 -3 -20 -12 -29z m47 22 c9 -10 -4 -34 -19 -34 -16 0 -16
2 -8 24 6 17 16 20 27 10z m-145 -247 c3 -22 8 -27 32 -27 48 0 60 -9 60 -47
0 -38 4 -37 -67 -17 -20 5 -23 2 -23 -19 0 -22 6 -28 38 -37 46 -12 70 -35 78
-78 5 -26 1 -36 -24 -62 -17 -17 -44 -33 -61 -36 -28 -6 -31 -10 -31 -45 0
-32 -3 -39 -20 -39 -17 0 -20 7 -20 40 0 35 -3 40 -24 40 -13 0 -38 3 -55 6
-28 6 -31 10 -31 45 0 42 2 44 28 30 9 -4 32 -11 50 -14 30 -6 32 -5 32 22 0
25 -5 31 -30 36 -69 15 -107 75 -80 126 12 22 61 49 90 49 16 0 20 6 20 31 0
24 4 30 18 27 10 -2 18 -14 20 -31z"/>
<path d="M4957 4503 c-13 -12 -7 -33 8 -33 8 0 15 9 15 20 0 20 -11 26 -23 13z"/>
<path d="M5020 4353 c0 -25 1 -26 16 -11 9 9 13 21 10 27 -13 20 -26 11 -26
-16z"/>
<path d="M708 5092 c-12 -2 -18 -13 -18 -31 0 -23 -7 -31 -40 -46 -48 -22 -70
-53 -70 -98 0 -41 22 -63 92 -93 47 -20 49 -22 32 -38 -17 -17 -31 -17 -92 0
-22 6 -23 5 -20 -47 l3 -54 45 -11 c40 -9 45 -14 48 -42 3 -30 6 -32 42 -32
37 0 39 2 46 35 3 19 9 35 13 35 4 0 24 15 44 34 33 30 37 39 37 84 0 57 -21
81 -88 103 -80 25 -78 52 4 48 29 -2 57 0 60 4 4 3 4 22 0 40 -5 26 -14 38
-36 47 -21 9 -30 19 -30 35 0 17 -7 24 -27 27 -16 2 -36 2 -45 0z"/>
<path d="M1265 5060 c-16 -4 -41 -12 -55 -18 -31 -12 -100 -86 -100 -107 0
-10 -11 -15 -35 -15 -28 0 -37 -5 -50 -30 l-16 -30 41 0 c33 0 40 -3 40 -20 0
-16 -7 -20 -30 -20 -19 0 -33 -7 -40 -19 -18 -34 -12 -41 39 -41 40 0 51 -4
56 -19 10 -32 81 -89 127 -101 45 -13 109 -8 149 10 18 8 24 19 25 45 l1 35
-61 0 c-39 0 -69 5 -82 15 -18 14 -18 14 8 15 20 0 32 8 43 30 l16 30 -61 0
c-53 0 -60 2 -60 20 0 17 7 20 45 20 39 0 46 3 60 30 l16 30 -48 0 -47 0 22
22 c16 17 36 23 85 26 l63 4 1 34 c1 29 -3 34 -31 43 -52 16 -89 20 -121 11z"/>
<path d="M2247 5020 c-214 -4 -259 -8 -267 -20 -6 -9 -10 -185 -10 -426 0
-385 1 -412 18 -427 16 -15 53 -17 313 -17 168 0 300 4 309 10 13 8 16 70 20
422 3 271 1 419 -5 432 -14 29 -64 32 -378 26z m351 -442 l-3 -413 -275 -3
c-151 -1 -285 0 -297 3 l-23 5 0 404 c0 221 3 406 7 409 3 4 138 7 300 7 l293
0 -2 -412z"/>
<path d="M2044 4937 c-3 -8 -4 -43 -2 -78 l3 -64 258 -3 258 -2 -3 77 -3 78
-253 3 c-207 2 -253 0 -258 -11z m411 -43 c0 -22 -5 -30 -22 -32 -30 -4 -32
-42 -3 -42 11 0 20 -4 20 -10 0 -5 -8 -10 -19 -10 -44 0 -57 72 -13 78 14 2
22 10 22 24 0 15 -5 19 -20 15 -11 -3 -20 -2 -20 2 0 15 12 19 33 12 16 -6 22
-17 22 -37z m72 33 c7 -4 11 -29 10 -59 -2 -56 -20 -78 -53 -63 -17 8 -16 9 9
13 37 5 39 42 2 42 -14 0 -25 5 -25 10 0 6 12 10 26 10 19 0 25 4 22 17 -2 10
-10 18 -18 19 -27 2 -31 4 -26 12 6 10 36 9 53 -1z m-147 -62 c0 -30 -4 -55
-10 -55 -5 0 -10 25 -10 55 0 30 5 55 10 55 6 0 10 -25 10 -55z"/>
<path d="M2049 4745 c-3 -2 -3 -20 -1 -40 4 -34 5 -35 47 -35 39 0 43 2 47 28
2 16 2 34 0 40 -3 11 -83 17 -93 7z"/>
<path d="M2190 4710 l0 -41 48 3 c47 3 47 3 47 38 0 35 0 35 -47 38 l-48 3 0
-41z"/>
<path d="M2320 4710 l0 -40 49 0 c46 0 49 2 53 28 7 46 0 52 -53 52 l-49 0 0
-40z"/>
<path d="M2460 4710 l0 -40 50 0 50 0 0 40 0 40 -50 0 -50 0 0 -40z"/>
<path d="M2044 4606 c-11 -46 1 -57 53 -54 48 3 48 3 48 38 0 35 -1 35 -47 38
-44 3 -48 1 -54 -22z"/>
<path d="M2190 4589 l0 -40 48 3 c44 3 47 5 50 32 4 35 -10 46 -60 46 -38 0
-38 0 -38 -41z"/>
<path d="M2327 4623 c-4 -3 -7 -21 -7 -40 0 -33 0 -33 49 -33 47 0 49 1 54 33
2 17 3 35 0 40 -5 9 -87 9 -96 0z"/>
<path d="M2467 4623 c-4 -3 -7 -21 -7 -40 l0 -33 50 0 50 0 0 40 0 40 -43 0
c-24 0 -47 -3 -50 -7z"/>
<path d="M2048 4503 c0 -5 -2 -20 -2 -35 -2 -27 0 -28 46 -28 l48 0 0 35 c0
35 0 35 -45 35 -25 0 -46 -3 -47 -7z"/>
<path d="M2190 4476 l0 -36 51 0 50 0 -3 33 c-3 31 -5 32 -50 35 l-48 3 0 -35z"/>
<path d="M2320 4475 l0 -35 49 0 c55 0 66 9 57 46 -6 21 -12 24 -56 24 l-50 0
0 -35z"/>
<path d="M2460 4475 l0 -35 50 0 50 0 0 35 0 35 -50 0 -50 0 0 -35z"/>
<path d="M2050 4360 l0 -40 44 0 c43 0 44 1 48 35 2 20 2 38 -1 40 -2 3 -24 5
-48 5 l-43 0 0 -40z"/>
<path d="M2190 4361 l0 -41 51 0 50 0 -3 38 c-3 37 -3 37 -50 40 l-48 3 0 -40z"/>
<path d="M2327 4393 c-4 -3 -7 -21 -7 -40 0 -33 0 -33 49 -33 53 0 61 9 53 58
-4 19 -11 22 -46 22 -24 0 -46 -3 -49 -7z"/>
<path d="M2460 4305 l0 -95 50 0 50 0 0 95 0 95 -50 0 -50 0 0 -95z"/>
<path d="M2045 4261 c-11 -36 4 -51 51 -51 44 0 44 0 44 35 0 35 0 35 -44 35
-35 0 -46 -4 -51 -19z"/>
<path d="M2190 4246 l0 -36 51 0 50 0 -3 33 c-3 31 -5 32 -50 35 l-48 3 0 -35z"/>
<path d="M2320 4245 l0 -35 55 0 55 0 0 35 0 35 -55 0 -55 0 0 -35z"/>
<path d="M3180 5003 c-8 -2 -22 -7 -30 -9 -9 -3 3 -13 30 -25 43 -19 90 -55
90 -69 0 -4 -18 -27 -41 -51 -43 -46 -79 -107 -79 -134 0 -10 -10 -15 -34 -15
-19 0 -44 -9 -57 -19 -21 -17 -24 -29 -27 -98 -5 -103 6 -117 83 -120 56 -1
59 -2 103 -54 26 -29 66 -65 91 -80 44 -29 44 -29 45 -90 1 -73 17 -89 87 -89
67 0 78 7 85 51 l7 39 96 0 c53 0 106 3 119 6 19 6 22 3 22 -25 0 -48 30 -71
94 -71 70 0 81 13 81 101 0 68 0 68 41 97 75 54 128 136 144 224 6 29 19 61
29 72 10 12 26 36 35 54 12 23 23 32 42 32 14 0 34 5 46 11 27 15 58 86 57
134 l0 40 -14 -50 c-8 -32 -24 -59 -44 -77 -39 -35 -52 -29 -40 17 13 47 -2
75 -41 75 -57 0 -76 -74 -32 -123 15 -16 14 -20 -11 -45 l-28 -27 -5 22 c-23
87 -114 186 -218 237 -134 66 -299 81 -446 40 -52 -14 -60 -14 -130 5 -72 20
-119 25 -150 14z m641 -87 c57 -23 117 -64 118 -80 1 -4 -7 -5 -16 0 -92 40
-196 67 -286 72 -100 5 -112 14 -42 31 57 14 160 4 226 -23z m389 -102 c0 -31
-23 -28 -28 4 -2 15 2 22 12 22 11 0 16 -9 16 -26z m-892 -36 c16 -16 16 -80
0 -96 -21 -21 -54 -14 -66 13 -16 34 -15 46 4 73 17 24 43 29 62 10z"/>
<path d="M589 4464 c-19 -14 -33 -30 -31 -35 1 -6 20 -33 42 -60 45 -57 49
-70 20 -64 -14 3 -24 -5 -35 -25 -8 -16 -15 -31 -15 -35 0 -3 23 -5 50 -5 43
0 50 -3 50 -20 0 -17 -7 -20 -40 -20 -34 0 -42 -4 -55 -30 l-16 -30 55 0 54 0
-5 -40 -6 -40 67 0 66 0 0 40 c0 39 1 40 34 40 27 0 39 7 56 29 l21 30 -58 3
c-46 2 -59 7 -61 21 -3 14 4 17 37 17 30 0 44 6 55 22 23 33 20 38 -24 38 -23
0 -40 5 -40 11 0 6 17 32 38 58 57 69 57 67 11 98 -23 15 -44 23 -46 18 -10
-29 -85 -135 -92 -130 -5 2 -26 34 -47 70 -22 35 -42 65 -45 65 -3 0 -21 -12
-40 -26z"/>
<path d="M1160 4454 c-41 -37 -60 -82 -60 -141 0 -30 -3 -33 -30 -33 -23 0
-33 -7 -45 -30 l-16 -30 46 0 c43 0 45 -1 45 -28 0 -16 -6 -49 -13 -74 l-14
-44 51 0 c28 0 92 -3 141 -7 50 -5 95 -4 102 0 9 6 9 19 0 50 l-11 41 -76 -5
c-43 -3 -80 -2 -83 3 -3 5 -3 21 0 37 5 23 10 27 38 27 24 0 37 7 49 25 22 33
20 37 -11 35 -73 -5 -76 -3 -70 40 3 23 11 47 17 55 19 22 54 18 79 -9 l23
-25 39 26 c46 30 48 42 12 73 -43 37 -75 50 -125 50 -41 0 -54 -5 -88 -36z"/>
<path d="M3920 3779 c-52 -17 -158 -50 -234 -75 l-139 -44 -163 0 c-155 0
-164 -1 -184 -22 -13 -14 -20 -35 -20 -60 0 -26 -4 -38 -14 -38 -23 0 -56 -50
-56 -85 0 -17 16 -81 35 -141 19 -60 35 -130 35 -156 0 -34 6 -54 24 -75 13
-15 29 -47 36 -70 17 -55 53 -93 89 -93 16 0 123 30 238 67 l208 66 187 6
c209 7 217 9 218 81 1 28 7 39 33 55 53 34 55 63 8 212 -23 72 -41 150 -41
175 0 31 -6 50 -19 62 -10 9 -28 43 -40 75 -12 32 -27 64 -35 70 -28 23 -72
21 -166 -10z m144 -41 c8 -13 18 -35 21 -50 l7 -28 -183 0 c-100 0 -179 3
-175 8 10 10 266 90 293 91 13 1 29 -9 37 -21z m-560 -214 c9 -3 16 -15 16
-25 0 -15 -4 -17 -24 -9 -36 13 -61 -25 -45 -69 8 -19 15 -22 39 -19 24 4 30
1 30 -14 0 -10 -8 -19 -17 -19 -66 -4 -93 18 -93 77 0 34 5 47 26 63 28 22 42
25 68 15z m142 -69 c29 -75 29 -85 4 -85 -11 0 -20 7 -20 15 0 10 -10 15 -29
15 -16 0 -31 -6 -35 -15 -6 -16 -36 -21 -36 -6 0 8 17 57 39 114 8 21 17 28
33 25 16 -2 27 -18 44 -63z m144 44 c9 -16 8 -26 -3 -43 -13 -20 -13 -25 4
-48 15 -20 16 -28 6 -36 -16 -14 -29 -5 -44 31 -16 36 -33 35 -33 -3 0 -36
-29 -43 -31 -7 -1 23 -1 120 0 125 1 1 21 2 46 2 35 0 47 -5 55 -21z m142 4
c25 -23 24 -87 -2 -113 -14 -14 -33 -20 -65 -20 l-45 0 0 75 0 75 47 0 c29 0
53 -6 65 -17z m-752 -68 c0 -30 -2 -55 -5 -55 -9 0 -25 78 -19 94 13 33 24 14
24 -39z m1025 -129 c8 -39 -2 -79 -16 -71 -12 8 -12 105 1 105 5 0 12 -15 15
-34z m-47 -85 l3 -51 -469 0 -470 0 -4 38 c-6 73 -47 67 470 65 l467 -1 3 -51z
m-677 -213 c-150 -49 -153 -50 -172 -32 -10 11 -21 34 -25 52 l-6 32 178 -1
179 -1 -154 -50z"/>
<path d="M3588 3456 c-4 -18 -1 -26 8 -26 16 0 18 18 5 38 -6 10 -10 7 -13
-12z"/>
<path d="M3720 3474 c0 -9 7 -14 17 -12 25 5 28 28 4 28 -12 0 -21 -6 -21 -16z"/>
<path d="M3860 3445 c0 -42 2 -46 23 -43 19 3 22 9 22 43 0 34 -3 40 -22 43
-21 3 -23 -1 -23 -43z"/>
<path d="M2129 3752 c-237 -90 -351 -341 -265 -581 9 -24 16 -45 16 -46 0 -2
-14 -12 -32 -23 l-32 -21 24 -5 c122 -29 260 -52 260 -43 0 16 -61 229 -70
247 -7 11 -11 9 -21 -13 -7 -15 -15 -27 -19 -27 -19 0 -35 71 -34 155 0 104
19 158 80 225 85 94 180 134 304 128 53 -2 73 0 62 6 -9 5 -64 11 -122 13 -81
2 -115 -1 -151 -15z"/>
<path d="M843 3740 c-34 -14 -56 -55 -51 -95 l4 -35 -116 0 c-170 0 -159 22
-159 -315 -1 -262 0 -269 21 -292 l21 -23 417 0 c360 0 419 2 438 16 21 15 22
21 22 185 l0 171 -39 -34 c-58 -50 -215 -98 -318 -98 -31 0 -33 -2 -33 -35 l0
-35 -70 0 -70 0 0 35 c0 33 -2 35 -35 35 -99 0 -272 55 -322 102 -38 35 -26
39 21 7 50 -33 156 -63 264 -74 l72 -7 0 31 0 31 70 0 70 0 0 -30 c0 -26 3
-30 29 -30 50 0 198 29 255 51 31 11 66 33 81 50 23 28 25 38 25 125 0 131 -3
134 -155 134 l-115 0 0 39 c0 53 -8 69 -39 85 -31 15 -254 20 -288 6z m265
-52 c7 -7 12 -27 12 -45 l0 -33 -141 0 -140 0 3 38 3 37 100 6 c55 3 111 6
126 7 14 1 30 -3 37 -10z"/>
<path d="M2514 3673 c2 -10 12 -58 21 -108 8 -49 18 -103 22 -120 l6 -29 23
29 23 29 12 -29 c7 -17 13 -68 13 -115 1 -106 -28 -175 -104 -250 -65 -66
-141 -101 -239 -109 l-76 -7 50 -9 c65 -11 176 5 238 35 101 48 199 162 231
270 20 68 21 204 1 260 l-15 42 30 11 c17 6 30 14 30 17 0 5 -250 100 -264
100 -4 0 -5 -8 -2 -17z"/>
<path d="M4995 3674 c-72 -15 -108 -29 -120 -48 -17 -23 -20 -102 -5 -111 7
-4 7 -13 0 -26 -6 -11 -8 -24 -5 -29 4 -6 -20 -10 -62 -10 -87 0 -154 -30
-209 -93 -117 -133 -71 -348 88 -417 70 -31 166 -32 224 -2 39 20 48 20 137
11 112 -12 249 0 306 28 33 17 36 22 39 66 2 27 -2 55 -8 62 -7 8 -7 16 -2 19
6 3 10 108 10 250 0 281 4 269 -95 292 -53 13 -250 17 -298 8z m319 -33 c27
-9 51 -22 54 -29 2 -7 -13 -20 -35 -30 -56 -25 -360 -24 -415 1 -47 21 -48 34
-3 53 83 34 301 38 399 5z m-345 -162 c64 -15 265 -12 333 5 32 7 60 11 63 8
62 -62 -388 -88 -471 -27 -20 14 -9 39 14 30 8 -3 36 -10 61 -16z m-72 -110
c51 -25 99 -93 109 -155 19 -127 -83 -244 -211 -244 -152 0 -259 162 -195 295
58 123 174 163 297 104z m459 -34 c-29 -22 -109 -35 -214 -35 -63 0 -102 4
-110 12 -23 23 -12 31 37 25 54 -6 227 8 264 22 30 12 48 -6 23 -24z m0 -130
c-26 -20 -106 -34 -206 -37 -72 -3 -85 -1 -88 13 -3 14 12 18 99 24 56 4 123
13 148 19 52 14 78 3 47 -19z m0 -130 c-10 -8 -43 -19 -74 -26 -56 -11 -238
-17 -247 -7 -3 3 -3 11 0 19 4 11 32 15 113 16 59 1 130 9 157 16 55 15 83 5
51 -18z"/>
<path d="M4983 3633 c-44 -6 -41 -15 7 -31 54 -16 122 -15 146 3 25 19 44 19
44 0 0 -11 11 -15 40 -15 22 0 40 5 40 10 0 6 9 10 20 10 42 0 18 17 -32 24
-80 9 -124 7 -154 -6 -22 -10 -28 -10 -32 0 -4 12 -16 13 -79 5z"/>
<path d="M4775 3341 c-3 -2 -5 -11 -5 -20 -1 -9 -15 -25 -33 -36 -26 -17 -32
-27 -32 -55 0 -31 4 -37 43 -55 50 -23 49 -41 -2 -38 -34 2 -36 1 -36 -28 0
-25 6 -33 30 -42 18 -7 30 -19 30 -29 0 -13 8 -18 30 -18 24 0 30 4 30 21 0
11 14 32 31 46 25 21 30 32 27 62 -3 32 -8 38 -46 56 -48 22 -50 41 -3 39 28
-2 31 1 31 27 0 19 -5 29 -15 29 -9 0 -20 11 -25 24 -8 22 -41 32 -55 17z"/>
<path d="M2256 3605 c-6 -29 -15 -39 -54 -59 -52 -26 -72 -57 -72 -109 0 -46
22 -73 77 -93 27 -9 55 -24 63 -31 13 -13 13 -16 -3 -27 -17 -13 -45 -11 -104
8 -22 7 -23 5 -23 -47 0 -62 7 -70 68 -86 39 -11 42 -14 42 -47 l0 -35 48 3
c45 3 47 4 50 35 2 25 13 39 42 60 46 33 70 76 70 128 0 45 -38 85 -97 103
-98 29 -92 67 10 57 l58 -6 -3 48 c-3 45 -5 49 -35 58 -26 7 -34 16 -39 42 -6
31 -9 33 -49 33 -41 0 -43 -1 -49 -35z"/>
<path d="M950 3229 l0 -50 33 3 c31 3 32 5 35 51 l3 47 -35 0 -36 0 0 -51z"/>
<path d="M3695 2638 c-12 -31 -14 -57 -9 -108 l6 -67 -148 -8 c-160 -9 -210
-10 -291 -5 -48 3 -83 -9 -83 -30 0 -17 60 -32 101 -25 33 6 41 5 36 -6 -3 -8
-21 -50 -40 -94 -87 -205 -157 -376 -157 -384 0 -17 66 -50 131 -67 89 -23
184 -13 267 27 34 17 62 33 62 37 0 4 -43 111 -96 237 -53 127 -98 236 -101
243 -6 13 37 12 255 -4 73 -6 73 -6 68 -32 -12 -58 -37 -422 -34 -497 l3 -79
-42 -8 c-82 -14 -203 -81 -203 -114 0 -12 45 -14 300 -14 259 0 300 2 300 15
0 33 -153 115 -216 115 -24 0 -24 0 -22 93 2 88 -15 340 -31 459 l-8 57 71 5
c160 12 246 16 246 11 0 -3 -9 -24 -19 -48 -11 -23 -42 -96 -69 -162 -28 -66
-64 -153 -82 -194 -30 -72 -30 -75 -13 -93 34 -33 131 -60 218 -60 82 1 107 7
183 45 34 17 43 26 39 42 -3 11 -48 123 -100 249 l-96 228 48 -6 c52 -7 114 9
108 28 -7 21 -71 35 -118 25 -29 -7 -78 -7 -148 0 -57 6 -140 11 -183 11 l-79
0 7 69 c11 118 -28 190 -61 109z m579 -685 l7 -23 -191 0 c-150 0 -191 3 -187
13 16 41 160 388 173 417 l16 34 87 -209 c49 -116 91 -220 95 -232z m-839 210
c50 -118 92 -220 93 -224 2 -5 -82 -9 -187 -9 -105 0 -191 3 -191 6 0 3 31 78
68 167 38 89 79 188 92 220 13 31 26 57 29 57 3 0 47 -98 96 -217z"/>
<path d="M4084 2140 c-12 -5 -28 -17 -35 -27 -8 -11 -22 -22 -31 -26 -10 -3
-18 -11 -18 -17 0 -5 8 -10 18 -10 16 -1 16 -1 0 -14 -23 -17 -23 -26 0 -26
10 0 29 -11 42 -25 20 -21 32 -25 65 -23 28 2 40 8 40 18 0 8 -6 16 -12 16 -7
1 -21 2 -30 3 -13 1 -14 4 -5 13 17 17 15 25 -5 24 -10 -1 -20 3 -23 9 -3 5 4
10 14 10 11 0 21 6 23 13 3 6 -3 12 -12 12 -9 0 -13 5 -10 10 3 6 19 10 36 10
18 0 29 5 29 14 0 25 -45 33 -86 16z"/>
<path d="M3320 2167 c0 -8 -11 -19 -25 -25 -37 -17 -34 -60 5 -75 38 -14 39
-27 2 -27 -36 0 -40 -38 -5 -46 13 -4 23 -12 23 -20 0 -8 9 -14 20 -14 11 0
20 6 20 13 0 8 9 22 20 32 32 29 26 64 -15 81 -39 16 -38 39 0 30 19 -5 23 -2
22 14 -1 11 -9 23 -19 26 -10 3 -16 10 -13 15 4 5 -3 9 -14 9 -12 0 -21 -6
-21 -13z"/>
<path d="M4927 2626 c-20 -7 -44 -20 -53 -27 -18 -15 -54 -82 -54 -101 0 -7
-10 -18 -22 -23 -44 -19 -33 -135 12 -135 14 0 28 -17 47 -57 77 -156 223
-149 297 15 10 23 25 42 32 42 46 0 60 91 20 131 -13 13 -28 40 -35 60 -12 38
-39 68 -80 89 -36 19 -121 22 -164 6z"/>
<path d="M1135 2505 l-190 -64 -227 0 -228 -1 0 -74 0 -74 -30 -7 c-17 -4 -30
-10 -30 -14 0 -4 13 -47 30 -96 26 -77 30 -103 30 -197 l0 -108 34 0 c33 0 35
-2 56 -65 12 -36 26 -65 32 -65 6 0 99 29 207 65 l197 65 227 0 227 0 0 71 c0
69 1 71 30 82 17 6 30 16 30 22 0 6 -13 51 -30 100 -26 76 -30 104 -30 192 l0
103 -33 0 c-32 0 -34 2 -53 63 -15 46 -25 62 -40 64 -10 1 -104 -27 -209 -62z
m199 -31 c4 -15 5 -28 3 -31 -3 -2 -49 -2 -103 -1 l-99 3 80 27 c102 34 111
34 119 2z m-68 -124 c19 -47 83 -106 126 -115 29 -7 29 -7 26 -72 l-3 -66 -46
-13 c-53 -16 -113 -72 -129 -120 l-12 -34 -257 0 -257 0 -13 35 c-18 52 -56
91 -106 112 l-45 18 0 60 0 60 45 19 c50 20 101 74 110 118 l7 28 266 3 c147
1 268 3 270 5 1 1 9 -16 18 -38z m-529 -512 c-49 -17 -92 -26 -97 -22 -4 5
-11 19 -15 32 -6 22 -6 22 97 21 l103 -1 -88 -30z"/>
<path d="M960 2301 c0 -11 -14 -28 -35 -39 -37 -22 -55 -64 -38 -91 5 -9 28
-25 51 -35 23 -11 42 -23 42 -27 0 -14 -37 -20 -64 -10 -25 10 -26 9 -26 -28
0 -34 3 -39 33 -47 22 -7 33 -17 35 -32 3 -19 9 -23 30 -20 17 2 28 10 30 22
2 11 19 34 38 51 55 52 38 109 -41 135 -48 16 -44 30 10 30 41 0 45 2 45 25 0
17 -8 29 -25 37 -14 6 -25 19 -25 30 0 13 -8 18 -30 18 -23 0 -30 -5 -30 -19z"/>
<path d="M712 2204 c-41 -29 -23 -84 28 -84 32 0 50 17 50 46 0 20 -32 54 -50
54 -3 0 -16 -7 -28 -16z"/>
<path d="M1196 2204 c-19 -18 -21 -55 -4 -72 19 -19 66 -15 78 7 14 28 13 38
-10 61 -24 24 -43 25 -64 4z"/>
<path d="M1889 2431 l-29 -29 0 -280 0 -279 26 -27 c17 -16 38 -26 58 -27 193
-5 740 3 756 11 34 18 50 64 50 145 0 73 -1 75 -25 75 -18 0 -25 -5 -25 -20 0
-11 -5 -20 -11 -20 -6 0 -13 9 -16 20 -5 18 -14 20 -75 20 -60 0 -72 3 -93 25
-35 34 -36 122 -2 160 21 24 28 25 132 28 l110 2 3 69 c2 38 -2 82 -9 98 -24
59 -19 58 -437 58 l-384 0 -29 -29z m131 -29 c0 -9 -81 -35 -87 -28 -10 10 9
26 40 34 32 9 47 7 47 -6z m128 1 c2 -9 -10 -13 -42 -13 -40 0 -63 10 -51 22
10 10 89 2 93 -9z m130 -1 c2 -8 -11 -12 -42 -12 -41 0 -55 7 -41 22 10 10 79
2 83 -10z m125 9 c4 0 7 -5 7 -11 0 -5 -20 -10 -45 -10 -41 0 -61 13 -34 22
10 3 50 3 72 -1z m140 1 c4 -1 7 -6 7 -12 0 -5 -22 -10 -50 -10 -48 0 -69 14
-32 22 16 4 56 3 75 0z m118 -18 c18 -22 4 -27 -38 -13 -47 16 -46 16 -39 27
8 13 63 2 77 -14z m39 -100 c0 -32 -4 -44 -12 -42 -13 5 -20 51 -13 76 10 29
25 8 25 -34z m-770 -9 c0 -33 -4 -45 -15 -45 -11 0 -15 12 -15 45 0 33 4 45
15 45 11 0 15 -12 15 -45z m0 -130 c0 -33 -4 -45 -15 -45 -11 0 -15 12 -15 45
0 33 4 45 15 45 11 0 15 -12 15 -45z m0 -130 c0 -33 -4 -45 -15 -45 -11 0 -15
12 -15 45 0 33 4 45 15 45 11 0 15 -12 15 -45z m12 -123 c22 -45 8 -63 -21
-26 -22 27 -26 46 -14 57 12 12 18 7 35 -31z m758 16 c-1 -26 -22 -58 -39 -58
-14 0 -14 0 4 44 17 40 35 48 35 14z m-615 -73 c0 -11 -59 -19 -82 -11 -8 3
-11 11 -8 16 8 14 90 9 90 -5z m133 3 c-3 -8 -21 -13 -43 -13 -22 0 -40 5 -42
13 -3 8 9 12 42 12 33 0 45 -4 43 -12z m130 0 c-3 -7 -23 -14 -46 -16 -33 -2
-42 0 -42 12 0 12 11 16 46 16 32 0 44 -4 42 -12z m132 -4 c0 -12 -9 -14 -42
-12 -59 4 -63 28 -4 28 35 0 46 -4 46 -16z m130 0 c0 -12 -9 -14 -42 -12 -59
4 -63 28 -4 28 35 0 46 -4 46 -16z"/>
<path d="M2554 2202 c-29 -5 -44 -31 -44 -75 0 -73 7 -77 130 -77 l110 0 0 75
0 75 -52 1 c-29 0 -69 1 -89 2 -20 1 -44 0 -55 -1z m72 -59 c13 -50 -30 -80
-67 -47 -36 32 -18 74 33 74 22 0 29 -6 34 -27z"/>
<path d="M5133 2124 c-3 -8 -34 -101 -68 -207 -57 -172 -65 -189 -74 -165 -5
14 -35 105 -66 202 -33 101 -62 176 -69 176 -11 0 -124 -37 -168 -55 -38 -15
-48 -65 -48 -239 l0 -166 360 0 360 0 0 166 c0 229 2 225 -168 285 -46 16 -54
16 -59 3z"/>
<path d="M4960 2090 c0 -25 4 -30 24 -30 13 0 31 -3 40 -6 13 -5 16 1 16 30 0
35 -1 36 -40 36 -38 0 -40 -2 -40 -30z"/>
<path d="M4966 1987 c-6 -39 8 -103 30 -139 14 -22 43 82 37 133 -5 45 -8 49
-33 49 -25 0 -28 -4 -34 -43z"/>
<path d="M677 1393 c-4 -3 -7 -172 -7 -374 l0 -368 -57 -3 c-54 -3 -58 -5 -58
-28 0 -23 4 -25 58 -28 l57 -3 0 -53 c0 -41 4 -55 16 -60 28 -11 44 13 44 65
l0 49 434 0 c425 0 435 0 441 20 3 11 3 24 0 30 -4 6 -159 10 -441 10 l-434 0
0 359 c0 198 -3 366 -6 375 -6 16 -35 22 -47 9z"/>
<path d="M5105 1357 c-61 -29 -116 -88 -140 -151 -16 -41 -16 -49 -4 -57 26
-17 49 -10 49 14 0 38 55 114 99 137 65 33 119 36 179 10 149 -64 177 -241 56
-350 -22 -19 -50 -37 -64 -38 -32 -5 -34 -7 -26 -36 5 -22 9 -24 39 -15 51 14
109 61 142 114 27 44 30 56 30 134 0 96 -12 128 -69 184 -75 75 -199 98 -291
54z"/>
<path d="M1990 1353 c-8 -3 -23 -12 -32 -21 -17 -14 -18 -48 -18 -439 0 -410
1 -424 20 -443 19 -19 33 -20 340 -20 l321 0 24 26 25 27 0 409 0 410 -29 29
-30 29 -303 -1 c-167 0 -310 -3 -318 -6z m583 -91 c10 -11 17 -38 18 -70 2
-36 6 -52 16 -52 20 0 19 -188 -2 -196 -11 -5 -15 -23 -15 -74 0 -51 4 -69 15
-74 22 -8 22 -196 0 -196 -9 0 -15 -6 -14 -13 4 -29 -2 -48 -21 -67 -19 -19
-33 -20 -269 -20 l-250 0 -20 26 c-20 26 -21 38 -21 370 0 331 1 345 20 364
19 19 33 20 273 20 232 0 255 -2 270 -18z"/>
<path d="M2055 1228 c-3 -7 -4 -164 -3 -348 l3 -335 245 0 245 0 3 28 c2 15
-1 27 -7 27 -7 0 -11 36 -11 100 0 55 4 100 9 100 15 0 18 139 4 145 -19 7
-18 191 0 198 10 4 12 17 8 49 l-6 43 -243 3 c-189 2 -244 0 -247 -10z m299
-212 c73 -30 103 -110 68 -182 -28 -56 -68 -78 -135 -71 -37 3 -56 11 -79 35
-63 62 -44 177 35 216 40 19 68 20 111 2z"/>
<path d="M2265 970 c4 -11 2 -20 -4 -20 -6 0 -11 7 -11 16 0 14 -3 14 -15 4
-12 -10 -13 -16 -4 -27 7 -7 9 -17 5 -20 -4 -4 -11 -2 -15 6 -6 10 -10 9 -15
-4 -9 -24 -8 -25 13 -25 10 0 26 11 35 25 31 47 106 23 106 -34 0 -12 -11 -32
-25 -45 -14 -13 -25 -28 -25 -35 0 -6 -4 -11 -10 -11 -5 0 -10 5 -10 11 0 6
-13 25 -28 43 -29 32 -62 43 -62 20 0 -17 49 -73 50 -56 0 6 5 12 11 12 6 0 9
-7 6 -14 -7 -19 25 -30 60 -21 20 5 23 8 13 20 -14 17 1 20 17 4 8 -8 13 -7
19 2 4 7 3 14 -4 17 -21 7 -13 25 8 19 13 -3 20 0 20 9 0 8 -7 14 -15 14 -8 0
-15 5 -15 10 0 6 7 10 15 10 8 0 15 7 15 16 0 10 -6 14 -15 11 -8 -4 -17 -2
-20 3 -3 4 1 10 7 13 10 3 8 9 -4 23 -17 17 -18 17 -18 1 0 -9 -5 -17 -11 -17
-6 0 -8 9 -4 20 5 14 2 20 -9 20 -9 0 -16 -7 -16 -15 0 -8 -4 -15 -10 -15 -5
0 -10 7 -10 15 0 8 -7 15 -16 15 -11 0 -14 -6 -9 -20z m-25 -120 c0 -5 -4 -10
-10 -10 -5 0 -10 5 -10 10 0 6 5 10 10 10 6 0 10 -4 10 -10z"/>
<path d="M2560 1085 c0 -16 6 -25 15 -25 9 0 15 9 15 25 0 16 -6 25 -15 25 -9
0 -15 -9 -15 -25z"/>
<path d="M2560 1000 c0 -20 5 -30 15 -30 10 0 15 10 15 30 0 20 -5 30 -15 30
-10 0 -15 -10 -15 -30z"/>
<path d="M2560 739 c0 -38 24 -35 28 4 2 19 -1 27 -12 27 -11 0 -16 -10 -16
-31z"/>
<path d="M2560 655 c0 -16 6 -25 15 -25 9 0 15 9 15 25 0 16 -6 25 -15 25 -9
0 -15 -9 -15 -25z"/>
<path d="M1360 1028 l0 -318 60 0 60 0 0 314 0 314 -60 4 -60 3 0 -317z"/>
<path d="M3273 1296 c-53 -24 -63 -58 -63 -206 0 -77 5 -140 11 -153 22 -43
50 -57 117 -57 l62 0 0 -215 0 -215 280 0 280 0 0 215 0 215 45 0 c103 0 125
36 125 209 0 133 -12 180 -52 203 -35 20 -760 23 -805 4z m690 -156 c36 0 56
-38 39 -75 -16 -36 -42 -33 -42 5 0 27 -3 30 -30 30 l-30 0 0 -217 0 -218 -45
-19 c-48 -19 -86 -61 -102 -111 -9 -29 -11 -30 -73 -30 -61 0 -64 1 -71 27
-12 47 -50 90 -102 113 l-49 23 -2 214 -1 213 -27 3 c-25 3 -28 0 -28 -27 0
-24 -4 -31 -19 -31 -42 0 -69 63 -38 88 16 13 136 18 397 15 107 -2 207 -3
223 -3z"/>
<path d="M3694 1022 c-6 -4 -21 -26 -33 -50 -25 -49 -46 -47 -38 4 5 32 4 34
-23 34 -19 0 -31 -6 -35 -19 -3 -10 -15 -21 -25 -24 -28 -7 -28 -57 0 -57 12
0 24 -9 29 -22 14 -37 46 -60 78 -56 22 2 32 12 48 45 27 56 50 58 42 3 -5
-40 -5 -40 29 -40 30 0 35 4 40 29 4 21 13 31 28 33 26 4 37 58 12 58 -8 0
-31 16 -50 35 -35 34 -75 45 -102 27z"/>
<path d="M3638 726 c-34 -25 -12 -86 31 -86 21 0 51 30 51 52 0 18 -31 48 -51
48 -8 0 -22 -7 -31 -14z"/>
<path d="M5190 1261 c0 -11 -15 -28 -35 -40 -30 -17 -35 -26 -35 -56 0 -33 4
-38 40 -52 55 -22 55 -48 -1 -39 l-42 7 53 -58 c58 -64 70 -72 70 -48 0 9 13
28 29 43 56 53 49 101 -20 128 -50 21 -50 34 1 34 35 0 40 3 40 24 0 16 -7 26
-21 29 -11 3 -23 15 -26 26 -7 28 -53 29 -53 2z"/>
<path d="M990 965 l0 -255 60 0 60 0 0 255 0 255 -60 0 -60 0 0 -255z"/>
<path d="M4782 1095 c-102 -29 -195 -114 -232 -212 -25 -66 -26 -173 -4 -240
67 -200 303 -296 491 -199 265 135 252 516 -22 637 -61 27 -165 33 -233 14z
m224 -93 c168 -86 202 -305 69 -438 -63 -64 -129 -88 -218 -82 -101 7 -182 61
-229 152 -28 54 -34 148 -15 205 9 25 13 49 10 54 -3 6 -2 7 4 4 5 -4 16 5 24
19 16 30 74 79 115 95 74 30 171 27 240 -9z"/>
<path d="M4850 946 c0 -18 -10 -31 -39 -47 -83 -46 -79 -118 7 -158 28 -14 52
-28 52 -33 0 -16 -33 -21 -72 -11 l-38 10 0 -42 c0 -44 2 -46 73 -69 10 -3 17
-15 17 -31 0 -22 4 -25 35 -25 30 0 35 3 35 23 0 15 15 37 39 59 73 66 61 135
-30 169 -60 23 -58 44 4 43 47 0 47 0 47 32 0 26 -6 36 -27 46 -16 7 -29 23
-31 36 -3 18 -10 22 -38 22 -29 0 -34 -3 -34 -24z"/>
<path d="M810 894 l0 -184 60 0 60 0 -2 183 -3 182 -57 2 -58 1 0 -184z"/>
<path d="M1180 855 l0 -145 60 0 60 0 0 145 0 145 -60 0 -60 0 0 -145z"/>
</g>
</svg>
